# xmcd
#
# Track frame offsets:
#	150
#	16122
#	36820
#
# Disc length: 731 seconds
#
# Revision: 1
# Processed by: cddbd v1.5.1PL0 Copyright (c) Steve Scherf et al.
# Submitted via: EasyCDDAExtractor 8.0.1.1
#
DISCID=1602d903
DTITLE=Tweet - oops (oh my)
DYEAR=2002
DGENRE=Country
TTITLE0=oops (oh my) - radio edit 
TTITLE1=oops (oh my) feat bubba sparxxx - amended version
TTITLE2=oops (oh my) feat fabulous - original version
EXTD=YEAR: 2002
EXTT0=
EXTT1=
EXTT2=
PLAYORDER=
